<svg xmlns="http://www.w3.org/2000/svg" width="20" height="20"  xmlns:v="https://vecta.io/nano"><path d="M5.363 7.87c-.173-.129-.347-.194-.52-.194h-.779v4.664h.779c.173 0 .347-.065.52-.194s.26-.324.26-.583V8.453c0-.259-.087-.454-.26-.583h0zM18.04 0H1.96A1.96 1.96 0 0 0 0 1.955v16.089A1.96 1.96 0 0 0 1.96 20h16.08A1.96 1.96 0 0 0 20 18.045V1.955A1.96 1.96 0 0 0 18.04 0h0zM6.884 11.571c0 .84-.518 2.112-2.159 2.109H2.654V6.294h2.115c1.582 0 2.114 1.271 2.115 2.111v3.167zm4.495-3.958H9v1.715h1.454v1.32H9v1.715h2.379v1.32H8.603a.9.9 0 0 1-.925-.879V7.219c-.012-.498.382-.911.88-.924h2.821v1.318zm4.627 5.147c-.589 1.373-1.645 1.1-2.118 0l-1.72-6.464h1.454l1.326 5.077 1.32-5.077h1.454l-1.717 6.464z" fill="#fff"/></svg>