<svg xmlns="http://www.w3.org/2000/svg" width="21" height="20"  xmlns:v="https://vecta.io/nano"><path d="M0 10.253c0 4.53 3.009 8.373 7.181 9.729.525.095.717-.222.717-.493l-.014-1.909c-2.921.62-3.538-1.21-3.538-1.21-.478-1.185-1.166-1.5-1.166-1.5-.953-.636.072-.623.072-.623 1.054.072 1.61 1.057 1.61 1.057.937 1.567 2.456 1.114 3.056.852.094-.663.366-1.115.667-1.371C6.252 14.526 3.8 13.646 3.8 9.718c0-1.119.41-2.034 1.082-2.752-.109-.258-.468-1.301.102-2.713 0 0 .882-.276 2.888 1.051.838-.227 1.736-.341 2.628-.345a10.32 10.32 0 0 1 2.63.345c2.004-1.327 2.885-1.051 2.885-1.051.572 1.412.212 2.455.103 2.713.673.718 1.081 1.633 1.081 2.752 0 3.938-2.456 4.805-4.794 5.059.377.318.712.942.712 1.899l-.012 2.814c0 .273.189.593.721.492C17.995 18.624 21 14.782 21 10.253 21 4.59 16.299 0 10.5 0S0 4.59 0 10.253z" fill="#fff"/></svg>