<svg xmlns="http://www.w3.org/2000/svg" viewBox="0 0 1080 1080"  xmlns:v="https://vecta.io/nano"><style>.C{isolation:isolate}.L,.N,.F{mix-blend-mode:multiply}.G{mix-blend-mode:soft-light}</style><defs><clipPath id="A"><path d="M673.08 643.05c-4.44-8-4.44-15.88 3.15-27.21h0c14.22-21.94 22.38-48.19 22.38-77.66 0-88.86-74.12-160.9-165.55-160.9s-165.56 72-165.56 160.9a145.27 145.27 0 0 0 8.71 50.3h0c5.1 13.79 7.16 36.81-4.11 48.08-11.71 11.71-32 13.58-39.21 26.91-8.11 14.94 3.33 35.61 38.86 30.91 12.38-1.64 45.44-19.24 58.25-1.45 9.68 13.44 44.3 43.31 89.19 24.81C572 696 593.9 696.23 620.74 703.44c46.76 12.55 83.52-5.13 86.76-21.78 4.88-25.15-29.98-30.58-34.42-38.61z" fill="#ff97c9"/></clipPath><clipPath id="B"><rect x="559.45" y="294.06" width="39.13" height="326.96" rx="13.62" transform="matrix(.511143 -.859496 .859496 .511143 -110.22 721.29)" fill="#fec272"/></clipPath></defs><g class="C"><g><path d="M316.75 516.8c-54.12 40.42-36.9 74.67-62 105.16-17.55 21.31-93.39 19.6-117.61 72.25s27.29 95.71 113.77 110.7S397.33 831 443.07 867.17 606 906 681.36 843.34s196-9 234.45-93.52c28.52-62.75-66.87-89.43-74.56-137.09s-75.38-125.68-173.75-92.24-268.12-65.43-350.75-3.69z" fill="#e1ecff"/><path d="M673.08 643.05c-4.44-8-4.44-15.88 3.15-27.21h0c14.22-21.94 22.38-48.19 22.38-77.66 0-88.86-74.12-160.9-165.55-160.9s-165.56 72-165.56 160.9a145.27 145.27 0 0 0 8.71 50.3h0c5.1 13.79 7.16 36.81-4.11 48.08-11.71 11.71-32 13.58-39.21 26.91-8.11 14.94 3.33 35.61 38.86 30.91 12.38-1.64 45.44-19.24 58.25-1.45 9.68 13.44 44.3 43.31 89.19 24.81C572 696 593.9 696.23 620.74 703.44c46.76 12.55 83.52-5.13 86.76-21.78 4.88-25.15-29.98-30.58-34.42-38.61z" fill="#ff97c9"/><g clip-path="url(#A)" fill="#ff97c9"><path class="F" d="M364.3 501.69c-7.14 34 2.14 96.34 61.41 130.5 35 20.15 12.39 62.19 57.36 72.69 28 6.53 60.74-28.49 130 7.66-73 97.27-334.32 74.33-334.32 74.33V585.15zm281.22 18.18s29.5 33.69 22 65.28-21.66 59 27.44 71.54c47.55-77.37 62.16-119.9 62.16-119.9s-96.6-27.69-111.6-16.92z" opacity=".2"/></g><ellipse class="G" cx="437.64" cy="468.69" rx="37.96" ry="22.54" transform="matrix(.762443 -.647056 .647056 .762443 -199.3 394.5)" fill="#fff" opacity=".79"/><circle cx="465.94" cy="549.4" r="17.12" fill="#1c3177"/><path class="G" d="M589.22 562.27s3.26 5.5 1.71 10.66-6.45 13-.45 19.87 16.52 3.2 18.33-4.17-7.26-18.21-2.57-24.23c-3.1-4.49-17.02-2.13-17.02-2.13z" fill="#fff" opacity=".79"/><circle cx="598.43" cy="549.4" r="17.12" fill="#1c3177"/><path d="M511.77,585.15s4.27-12.64,20.67-12.64,20.16,12.64,20.16,12.64" fill="none" stroke-linecap="round" stroke-miterlimit="10" stroke="#413f4c" stroke-width="9"/><path d="M461.13,364.66,716.9,516.8l47.76-325.11C768,169.1,742.27,153.81,724,167.51Z" fill="#fea691"/><rect x="559.45" y="294.06" width="39.13" height="326.96" rx="13.62" transform="matrix(.511143 -.859496 .859496 .511143 -110.22 721.29)" fill="#fec272"/><g clip-path="url(#B)"><path class="G" d="M505.48 452.49l75.83-37.17-155.77-88.89-30.75 50.85 110.69 75.21z" fill="#fff" opacity=".79"/></g><path class="L" d="M751.19,283.4S715.72,408.59,583.82,437.64L716.9,516.8Z" fill="#fea691" opacity=".36"/><g fill="none" stroke-linecap="round" stroke-miterlimit="10" stroke="#ff8d76" stroke-width="13"><path d="M620.74 313.72l17.93 63.56m6.85-108.38l17.94 63.56m-102.78 12.49l8.8 31.2"/><path class="N" d="M673.07 424.13l31.19-8.81" opacity=".48"/><path d="M620.74 310.11l62.11-22.46"/></g><g fill="#ff97c9"><path d="M350.91 720.09c-14.6-1.33-36.38 5.63-39.28 16.74s20.82 17.52 42 15.71c22.54-1.92 30.4-11 29-15.85s-11.43-14.77-31.72-16.6zm291.25 3.53c-14.89 1.57-18.28 17.48-7.35 23.29s41.51 1.54 41-8.54-13.66-16.86-33.65-14.75z"/></g></g></g></svg>