<svg xmlns="http://www.w3.org/2000/svg" width="23" height="20"  xmlns:v="https://vecta.io/nano"><path d="M22.831 16.249c0-.544-.421-.97-.959-.97s-.959.426-.959.97.421.97.959.97.959-.426.959-.97zm.169 0a1.12 1.12 0 0 1-1.128 1.142 1.12 1.12 0 0 1-1.128-1.142 1.12 1.12 0 0 1 1.128-1.142A1.12 1.12 0 0 1 23 16.249zm-1.048-.023c.138 0 .22-.072.22-.194 0-.114-.08-.179-.22-.179h-.322v.372h.322zm.151.14l.318.453h-.241l-.302-.435h-.249v.435h-.195v-1.141h.549c.244 0 .389.129.389.346 0 .162-.096.288-.255.338l-.015.005zm-5.26-5.229c0-2.918-1.792-3.913-3.449-3.913-1.533 0-2.536 1.004-2.824 1.592h-.038V7.494H7.675v9.552h2.971v-5.179c0-1.381.864-2.052 1.746-2.052.834 0 1.481.475 1.481 2.014v5.217h2.971v-5.908zM6.118 4.437A1.69 1.69 0 0 0 4.405 2.71a1.69 1.69 0 0 0-1.713 1.727 1.69 1.69 0 0 0 1.713 1.726 1.69 1.69 0 0 0 1.713-1.726zM2.919 17.038H5.89V7.486H2.919v9.552zM19.763 1.476v17.047c0 .815-.653 1.476-1.459 1.476H1.459C.653 20 0 19.339 0 18.524V1.476C0 .661.653 0 1.459 0h16.845c.806 0 1.459.661 1.459 1.476h0z" fill="#fff"/></svg>