<svg xmlns="http://www.w3.org/2000/svg" xmlns:xlink="http://www.w3.org/1999/xlink" width="1120.592" height="777.916" xmlns:v="https://vecta.io/nano"><circle cx="212.592" cy="103" r="64" fill="#ff6584"/><path d="M523.976 343.122c0 151.011-89.774 203.739-200.516 203.739s-200.516-52.728-200.516-203.739S323.461 0 323.461 0s200.516 192.11 200.516 343.122z" fill="#f2f2f2"/><path fill="#3f3d56" d="M316.156 523.761l2.054-126.383 85.464-156.354-85.142 136.528.923-56.827 58.902-113.12-58.658 98.082 1.66-102.206 63.074-90.058-62.812 73.986L322.658 0l-6.52 248.096.536-10.235-64.127-98.157 63.099 117.804-5.975 114.146-.178-3.029-73.928-103.296 73.704 113.999-.747 14.275-.134.215.061 1.172-15.159 289.599h20.254l2.43-149.584 73.522-113.72-73.34 102.476z"/><path d="M1120.592 404.972c0 123.61-73.484 166.77-164.132 166.77s-164.132-43.16-164.132-166.77S956.461 124.11 956.461 124.11s164.132 157.251 164.132 280.861z" fill="#f2f2f2"/><g fill="#3f3d56"><path d="M950.482 552.833l1.68-103.45 69.957-127.983-69.693 111.754.756-46.515 48.214-92.595-48.014 80.285 1.359-83.66 51.628-73.717-51.415 60.562.85-153.404-5.337 203.078.439-8.377-52.492-80.347 51.65 96.429-4.891 93.434-.146-2.48-60.513-84.553 60.33 93.314-.612 11.685-.109.176.05.959-12.409 237.05h16.579l1.989-122.441 60.182-93.085-60.032 83.881z"/><ellipse cx="554.592" cy="680.479" rx="554.592" ry="28.034"/><ellipse cx="892.445" cy="726.797" rx="94.989" ry="4.802"/><ellipse cx="548.72" cy="773.114" rx="94.989" ry="4.802"/><ellipse cx="287.944" cy="734.279" rx="217.014" ry="10.97"/></g><g fill="#2f2e41"><circle cx="97.084" cy="566.27" r="79"/><path d="M60.356 627.841l23.998.283-.507 42.997-23.998-.283zm47.996.566l23.998.283-.507 42.997-23.998-.283z"/><ellipse cx="119.546" cy="732.616" rx="7.5" ry="20" transform="matrix(.011782 -.999931 .999931 .011782 -654.1319 782.47948)"/><ellipse cx="167.554" cy="732.182" rx="7.5" ry="20" transform="matrix(.011782 -.999931 .999931 .011782 -606.25475 830.05533)"/></g><circle cx="99.319" cy="546.295" r="27" fill="#fff"/><circle cx="99.319" cy="546.295" r="9" fill="#3f3d56"/><g fill="#6c63ff"><path d="M21.322 491.904c-6.042-28.641 14.688-57.265 46.3-63.934s62.138 11.143 68.18 39.784-14.978 38.93-46.591 45.599-61.847 7.192-67.889-21.449z"/><use xlink:href="#B"/></g><use xlink:href="#C" fill="#3f3d56"/><g fill="#2f2e41"><circle cx="712.485" cy="565.415" r="79"/><path d="M696.287 635.255l22.941-7.05 12.632 41.103-22.941 7.05zm45.881-14.096l22.941-7.05 12.632 41.103-22.941 7.05z"/><ellipse cx="767.887" cy="732.003" rx="20" ry="7.5" transform="matrix(.955878 -.293764 .293764 .955878 -220.8593 196.83312)"/><ellipse cx="813.475" cy="716.946" rx="20" ry="7.5" transform="matrix(.955878 -.293764 .293764 .955878 -214.42477 209.56103)"/></g><circle cx="708.522" cy="545.71" r="27" fill="#fff"/><circle cx="708.522" cy="545.71" r="9" fill="#3f3d56"/><path d="M617.651 517.701c-14.49-25.433-3.478-59.016 24.594-75.009s62.576-8.341 77.065 17.093-2.391 41.644-30.463 57.637-56.707 25.713-71.196.28zm-46.059 82.556c0 50.557-30.054 68.21-67.13 68.21q-1.288 0-2.573-.029a109.57 109.57 0 0 1-5.1-.233c-33.461-2.368-59.457-20.929-59.457-67.948 0-48.659 62.181-110.059 66.852-114.603l.008-.008.27-.262s67.13 64.316 67.13 114.873z" fill="#6c63ff"/><path d="M502.016 660.732l24.553-34.307-24.614 38.074-.065 3.939-5.1-.233 2.92-55.825-24.675-38.168 24.753 34.585.057 1.014 2-38.217-21.125-39.44 21.383 32.733 2.09-79.502v.262l-.348 62.48 21.031-24.769-21.117 30.152-.556 34.217 19.636-32.839-19.718 37.874-.311 19.023 28.508-45.706-28.614 52.344z" fill="#3f3d56"/><use xlink:href="#B" x="618" y="11" fill="#6c63ff"/><use xlink:href="#C" x="618" y="11" fill="#3f3d56"/><g fill="#2f2e41"><ellipse cx="721.517" cy="656.822" rx="12.4" ry="39.5" transform="matrix(.428529 -.903528 .903528 .428529 -220.83517 966.22323)"/><ellipse cx="112.517" cy="651.822" rx="12.4" ry="39.5" transform="matrix(.372044 -.928215 .928215 .372044 -574.07936 452.71367)"/></g><defs ><path id="B" d="M217.592 610.342c0 55.076-32.74 74.306-73.13 74.306q-1.404 0-2.803-.031c-1.871-.04-3.725-.129-5.556-.254-36.451-2.58-64.771-22.799-64.771-74.021 0-53.008 67.739-119.896 72.827-124.846l.009-.009.294-.285s73.13 70.065 73.13 125.14z"/><path id="C" d="M141.798 676.223l26.747-37.374-26.814 41.477-.071 4.291-5.556-.254 3.181-60.815-26.881-41.58 26.965 37.677.062 1.105 2.179-41.633-23.013-42.966 23.294 35.658 2.277-86.608v.285l-.379 68.064 22.911-26.983-23.004 32.847-.606 37.276 21.391-35.774-21.481 41.259-.339 20.723 31.056-49.791-31.171 57.023z"/></defs></svg>