<svg xmlns="http://www.w3.org/2000/svg" width="26" height="20"  xmlns:v="https://vecta.io/nano"><path d="M26 2.392a11.73 11.73 0 0 1-3.06.8A5.1 5.1 0 0 0 25.295.386c-1.053.59-2.202 1.006-3.399 1.23C20.399.091 18.089-.41 16.056.35s-3.385 2.628-3.416 4.725c.007.388.059.774.154 1.151C8.523 6.032 4.537 4.111 1.82.94c-.473.77-.727 1.646-.735 2.539.006 1.694.896 3.271 2.371 4.199-.851-.013-1.685-.229-2.427-.627v.069a4.61 4.61 0 0 0 .381 1.793c.67 1.611 2.146 2.785 3.919 3.117a5.44 5.44 0 0 1-1.409.188 4.95 4.95 0 0 1-1.003-.109c.721 2.065 2.712 3.473 4.978 3.523-1.893 1.409-4.219 2.174-6.613 2.174-.437 0-.843-.03-1.28-.069C2.45 19.214 5.284 19.999 8.176 20c8.331 0 13.478-5.538 14.82-11.299.235-1 .354-2.023.355-3.048v-.647c1.033-.718 1.929-1.602 2.648-2.614z" fill="#fff"/></svg>