<?xml version="1.0" encoding="UTF-8"?>
<svg width="23px" height="20px" viewBox="0 0 23 20" version="1.1" xmlns="http://www.w3.org/2000/svg" xmlns:xlink="http://www.w3.org/1999/xlink">
    <title>linkedin-icon</title>
    <g id="Welcome" stroke="none" stroke-width="1" fill="none" fill-rule="evenodd">
        <g id="Contact" transform="translate(-50.000000, -69.000000)" fill="#FFFFFF" fill-rule="nonzero">
            <g id="Icons" transform="translate(16.000000, 69.000000)">
                <g id="linkedin-icon" transform="translate(34.000000, 0.000000)">
                    <path d="M22.8306482,16.2491667 C22.8306482,15.705 22.4096019,15.2788889 21.8719032,15.2788889 C21.334479,15.2788889 20.9131581,15.705 20.9131581,16.2491667 C20.9131581,16.7933333 21.334479,17.2194444 21.8719032,17.2194444 C22.4096019,17.2194444 22.8306482,16.7933333 22.8306482,16.2491667 Z M23,16.2491667 C23,16.8897222 22.5067664,17.3908333 21.8719032,17.3908333 C21.2373144,17.3908333 20.7438064,16.8897222 20.7438064,16.2491667 C20.7438064,15.6088889 21.2373144,15.1075 21.8719032,15.1075 C22.5067664,15.1075 23,15.6088889 23,16.2491667 Z M21.9523247,16.2266667 C22.0901117,16.2266667 22.1724545,16.1541667 22.1724545,16.0327778 C22.1724545,15.9191667 22.0923075,15.8541667 21.9523247,15.8541667 L21.6300898,15.8541667 L21.6300898,16.2266667 L21.9523247,16.2266667 Z M22.103561,16.3669444 L22.4219533,16.82 L22.1812378,16.82 L21.8787651,16.3852778 L21.6300898,16.3852778 L21.6300898,16.82 L21.4349372,16.82 L21.4349372,15.6786111 L21.9841639,15.6786111 C22.2281732,15.6786111 22.3736455,15.8077778 22.3736455,16.0244444 C22.3736455,16.1861111 22.2781278,16.3122222 22.1186572,16.3622222 L22.103561,16.3669444 Z M16.8435009,11.1380556 C16.8435009,8.22027779 15.0519953,7.225 13.3941596,7.225 C11.8612106,7.225 10.8577259,8.22916666 10.5700749,8.81694445 L10.5324717,8.81694445 L10.5324717,7.49361111 L7.67517544,7.49361111 L7.67517544,17.0455556 L10.6461048,17.0455556 L10.6461048,11.8669444 C10.6461048,10.4861111 11.5104301,9.81444445 12.3920474,9.81444445 C13.2259058,9.81444445 13.8725715,10.2891667 13.8725715,11.8286111 L13.8725715,17.0455556 L16.8435009,17.0455556 L16.8435009,11.1380556 Z M6.11779799,4.43694445 C6.11779799,3.43972221 5.35063727,2.71027779 4.40479259,2.71027779 C3.45867344,2.71027779 2.6917872,3.43972221 2.6917872,4.43694445 C2.6917872,5.43416666 3.45867344,6.16277779 4.40479259,6.16277779 C5.35063727,6.16277779 6.11779799,5.43416666 6.11779799,4.43694445 Z M2.9193279,17.0383333 L5.8902573,17.0383333 L5.8902573,7.48638889 L2.9193279,7.48638889 L2.9193279,17.0383333 Z M19.7628288,1.47638889 L19.7628288,18.5236111 C19.7628288,19.3388889 19.1095756,20 18.3039883,20 L1.45884052,20 C0.653253139,20 0,19.3388889 0,18.5236111 L0,1.47638889 C0,0.661111111 0.653253139,0 1.45884052,0 L18.3039883,0 C19.1095756,0 19.7628288,0.661111111 19.7628288,1.47638889 L19.7628288,1.47638889 Z" id="Fill-1"></path>
                </g>
            </g>
        </g>
    </g>
</svg>